#!OML:ASF E:/inclinewalkrobotboard/Project1/Captureday1/Session1/subject1.ASF
:FULLY-SPECIFIED
:DEGREES
288
root 0 0 0 -7.65475776638506 -8.255387940061267 -5.394207034910747
lowerback 13.645858229775303 1.9830555769696812 5.269698607709675
upperback 2.1828454208279524 3.3187323503015937 1.4772294617804125
thorax -5.306830060111603 1.6218142662060684 -1.9775974850214189
lowerneck -17.094455709533616 -3.795606596938671 -1.6591440942831555
upperneck 19.382678556303624 -5.018427730034738 0.8873944685233641
head 8.916057472589433 -2.4107352723485973 -0.05157839488177429
rclavicle 3.0365529428057564E-15 2.837661382795121E-16
rhumerus -46.78270359065999 -17.73837604029348 -74.04470127542082
rradius 25.688235858327758
rwrist -2.9262610297142295
rhand -22.46376666888281 28.458387889519543
rfingers 7.125020000000063
rthumb 3.964641153402077 -1.8880104507237903
lclavicle -4.8908047813783795E-15 -6.204596943324019E-15
lhumerus -41.732527984757034 2.124960393917106 85.99618187764986
lradius 26.81398343541708
lwrist 5.441397444788905
lhand -31.726194294700512 21.8777128152054
lfingers 7.125020000000033
lthumb -4.925026985092753 52.55299828976622
rfemur -21.21387274916205 15.857843876349264 33.50266651263533
rtibia 29.589197662951847
rfoot -10.571623318986196 -9.72702217595798
rtoes -3.911995658531353
lfemur -13.22763442477428 -5.3918867968270945 -18.324816877878582
ltibia 30.340815047330697
lfoot -4.2146041154216185 -3.1644825446844678
ltoes -9.397883808243614
289
root 0 0 0 -7.723077429298428 -7.728968566577947 -5.148103863724685
lowerback 13.653557352811124 1.9214810493157344 5.030437799442606
upperback 2.2222354748619217 3.2263832376707824 1.4609370176854908
thorax -5.26405332644011 1.5864747088466797 -1.8534581853079137
lowerneck -17.146231145265105 -3.7945975311003046 -1.6913803492809067
upperneck 19.300404724293244 -4.995959378459516 0.8869712301276502
head 8.895675931241232 -2.4047709163238467 -0.04705029566211749
rclavicle 2.849351447552729E-15 -2.5035684464910714E-16
rhumerus -46.77259915179005 -17.743879152536678 -73.33982206121833
rradius 25.91930421724726
rwrist -2.749697489603829
rhand -22.59190039000761 28.638416029598105
rfingers 7.125020000000064
rthumb 3.8430679816180167 -1.717280039565125
lclavicle -4.840615739393645E-15 -6.508722259784224E-15
lhumerus -41.527575473554826 2.290918853322596 85.72380108559979
lradius 26.850663931632372
lwrist 4.900138633168407
lhand -32.02098344102764 21.720208899863344
lfingers 7.125020000000034
lthumb -5.205318163598445 52.450584700587044
rfemur -21.244518409561536 15.398823407242162 32.87754514552276
rtibia 31.00283273487041
rfoot -9.43592537831403 -10.217999315907008
rtoes -4.396051286480233
lfemur -9.55592332218189 -6.872972109138837 -18.945475996592723
ltibia 21.215734091005007
lfoot -7.884454201671403 -0.5338334436329326
ltoes -6.8608777729232795
290
root 0 0 0 -7.774494716660946 -6.93673671945481 -4.774855939763374
lowerback 13.640200161259166 1.8179277246036079 4.670453313745461
upperback 2.2602434330469947 3.068391319505409 1.439733435477632
thorax -5.207322787710646 1.5204825232658654 -1.6578923156834033
lowerneck -17.228479165267814 -3.7799371577408287 -1.7379535584760772
upperneck 19.18454876740834 -4.944523916323586 0.8769628787187234
head 8.869522842250893 -2.387218660570713 -0.04093958378055351
rclavicle 3.1750260246083067E-15 -1.8084322766819797E-16
rhumerus -46.99771892384977 -17.768636729248783 -72.9443891494881
rradius 25.96278049362526
rwrist -2.504541460401061
rhand -22.63081330307381 28.737821773239475
rfingers 7.125020000000064
rthumb 3.8070034617512896 -1.6154882042266223
lclavicle -4.378626967516541E-15 -6.479719903133086E-15
lhumerus -41.32410287402251 2.3883235039722113 85.42211630761817
lradius 26.771581523519274
lwrist 4.172917915806568
lhand -32.30854806536436 21.47444151195485
lfingers 7.125020000000034
lthumb -5.4758581099315435 52.26463136415273
rfemur -21.08684265511758 14.812814959704014 32.072072994715455
rtibia 32.67463240532249
rfoot -8.061700351033275 -10.849717440145293
rtoes -4.720783102092071
lfemur -8.094140940828098 -6.910276028846839 -19.351473658337117
ltibia 18.525701813338397
lfoot -9.178891181996475 0.18094717129782723
ltoes -5.7157195230469195
291
root 0 0 0 -7.757261371973627 -6.197351488375608 -4.408169127427053
lowerback 13.59732499486761 1.7093255708934083 4.309456841464458
upperback 2.2755632957597545 2.8970156037184083 1.4144772298900765
thorax -5.157681566165055 1.444303364119747 -1.4614164664237057
lowerneck -17.2974831813644 -3.756618496175191 -1.7830196687647866
upperneck 19.088120768365044 -4.885313670057606 0.8637668259729558
head 8.848405378904305 -2.3648881081899473 -0.03361310731493239
rclavicle 3.395940796413815E-15 1.0434095101469626E-16
rhumerus -47.21420568957933 -17.79637392855213 -72.86890103703178
rradius 25.913681362586935
rwrist -2.3893000187698554
rhand -22.607902080087115 28.751377204805422
rfingers 7.125020000000064
rthumb 3.8290824353289032 -1.5959369174052895
lclavicle -4.130897117435327E-15 -6.3278373959370275E-15
lhumerus -41.246889086370594 2.4794521959608984 85.1930303389612
lradius 26.652231004090524
lwrist 3.586247983205107
lhand -32.49375026067708 21.23669188270175
lfingers 7.125020000000035
lthumb -5.648896872695612 52.06713484598013
rfemur -20.86007963991341 14.258574011272287 31.375372965546262
rtibia 33.97386290516377
rfoot -7.068779662659015 -11.416145875238
rtoes -4.942634644974831
lfemur -7.1767996769671285 -6.8482273258427195 -19.71190785487031
ltibia 17.85240547725124
lfoot -9.731622597318761 0.33711027542970484
ltoes -5.286466392960543
